# xmcd
#
# Track frame offsets: 
#        150
#        15423
#        34521
#        50844
#        67017
#        82515
#        97038
#        111261
#        126159
#        141507
#        145755
#
# Disc length: 2285 seconds
#
# Revision: 0
# Processed by: cddbd v1.5.2PL0 Copyright (c) Steve Scherf et al.
# Submitted via: ExactAudioCopy v1.0b1
#
DISCID=9508eb0b
DTITLE=UK Players - No Way Out
DYEAR=1982
DGENRE=Funk
TTITLE0=Dancing In The Street
TTITLE1=So Good To Be Alive
TTITLE2=No Way Out
TTITLE3=Missbehavin'
TTITLE4=Saving Up Your Love
TTITLE5=Can't Shake Your Love
TTITLE6=First Time Love
TTITLE7=Star Of My Show
TTITLE8=Killing Time
TTITLE9=Missbehavin' (Reprise)
TTITLE10=Loves Gonna Get You (Bonus Track)
EXTD=
EXTT0=
EXTT1=
EXTT2=
EXTT3=
EXTT4=
EXTT5=
EXTT6=
EXTT7=
EXTT8=
EXTT9=
EXTT10=
PLAYORDER=
